# xmcd
#
# Track frame offsets: 
#        150
#        23085
#        42637
#        56435
#        75522
#
# Disc length: 1323 seconds
#
# Revision: 2
# Processed by: cddbd v1.5.1PL0 Copyright (c) Steve Scherf et al.
# Submitted via: ExactAudioCopy v0.95a5
#
DISCID=34052905
DTITLE=Celine Dion - Live in het Olympia Theater
DYEAR=1900
DGENRE=pop
TTITLE0=Where does my heart beat now
TTITLE1=Le fils de Superman
TTITLE2=Elle
TTITLE3=L'amour existe encore
TTITLE4=Love can move mountains
EXTD=
EXTT0=
EXTT1=
EXTT2=
EXTT3=
EXTT4=
PLAYORDER=
